<svg xmlns="http://www.w3.org/2000/svg" width="742" height="499.508" viewBox="0 0 742 499.508"><defs><style>.a{fill:#496ac3;}.b{fill:#f2f2f2;}.c{opacity:0.1;}.d{fill:#2f2e41;}.e{fill:#6c63ff;}.f{fill:#3f3d56;}.g{fill:#ffb8b8;}.h{fill:#a0616a;}</style></defs><g transform="translate(0 -0.006)"><circle class="a" cx="52.239" cy="52.239" r="52.239" transform="translate(246.206 68.002)"/><path class="b" d="M234.361,405.03,173,344.568l-15.217-14.995-45.419-44.752-56.3,60.1L0,404.778" transform="translate(0 -67.841)"/><path class="b" d="M574.59,357.109H159.71l51.331-55.642,94.837-111.239,6.392-7.5L398.057,82.1l59.36,94.015,1.554,2.461,75.518,119.588Z" transform="translate(-38.042 -19.555)"/><path class="b" d="M881.386,386.276,778.91,265.362,728.673,206.09l-48.554,60.878-44.287,55.547-50.653,63.51" transform="translate(-139.386 -49.088)"/><path class="c" d="M175.31,329.574,148.271,347.7l-31.924-12.576-42.759,9.8,56.3-60.1Z" transform="translate(-17.528 -67.841)"/><path class="c" d="M505.117,176.119l-9.058,15.914-20.31-21.277L453.5,192.033l-12.577-24.18L420.6,192.033l-5.8-15.472L401.26,192.033,377.073,176.56l-17.1,6.171L445.757,82.1Z" transform="translate(-85.742 -19.555)"/><path class="c" d="M808.594,265.362,783.51,296.057l-20.315-24.184-30.956,25.152L709.8,266.968l48.554-60.878Z" transform="translate(-169.07 -49.088)"/><path class="d" d="M942.71,512.952l-1.354-.7c17.584-33.995,8.181-78.142-2.8-109.191a334.647,334.647,0,0,0-28.4-59.935l1.288-.814a336.37,336.37,0,0,1,28.546,60.24C951.074,433.886,960.543,478.474,942.71,512.952Z" transform="translate(-302.877 -174.592)"/><rect class="d" width="54.987" height="1.523" transform="translate(642.99 222.085) rotate(-79.645)"/><rect class="d" width="1.524" height="74.925" transform="matrix(0.732, -0.681, 0.681, 0.732, 586.033, 215.115)"/><rect class="d" width="44.191" height="1.524" transform="matrix(0.586, -0.81, 0.81, 0.586, 653.021, 310.146)"/><circle class="e" cx="7.618" cy="7.618" r="7.618" transform="translate(649.821 138.417)"/><circle class="f" cx="7.618" cy="7.618" r="7.618" transform="translate(566.784 197.076)"/><circle class="f" cx="7.618" cy="7.618" r="7.618" transform="translate(600.304 204.694)"/><circle class="e" cx="7.618" cy="7.618" r="7.618" transform="translate(585.068 234.405)"/><circle class="f" cx="7.618" cy="7.618" r="7.618" transform="translate(680.294 253.45)"/><circle class="f" cx="7.618" cy="7.618" r="7.618" transform="translate(655.154 261.83)"/><circle class="f" cx="7.618" cy="7.618" r="7.618" transform="translate(672.676 286.208)"/><circle class="f" cx="7.618" cy="7.618" r="7.618" transform="translate(592.686 147.559)"/><path class="d" d="M693.71,510.952l-1.354-.7c17.584-33.995,8.181-78.142-2.8-109.191a334.651,334.651,0,0,0-28.4-59.935l1.288-.814a336.369,336.369,0,0,1,28.547,60.24C702.074,431.886,711.543,476.474,693.71,510.952Z" transform="translate(-243.567 -174.116)"/><rect class="d" width="54.987" height="1.523" transform="translate(453.299 220.56) rotate(-79.645)"/><rect class="d" width="1.524" height="74.925" transform="matrix(0.732, -0.681, 0.681, 0.732, 396.344, 213.592)"/><rect class="d" width="44.191" height="1.524" transform="matrix(0.586, -0.81, 0.81, 0.586, 463.33, 308.622)"/><circle class="f" cx="7.618" cy="7.618" r="7.618" transform="translate(460.131 136.894)"/><circle class="f" cx="7.618" cy="7.618" r="7.618" transform="translate(377.094 195.553)"/><circle class="f" cx="7.618" cy="7.618" r="7.618" transform="translate(410.614 203.171)"/><circle class="f" cx="7.618" cy="7.618" r="7.618" transform="translate(395.378 232.881)"/><circle class="e" cx="7.618" cy="7.618" r="7.618" transform="translate(490.604 251.926)"/><circle class="f" cx="7.618" cy="7.618" r="7.618" transform="translate(465.464 260.306)"/><circle class="f" cx="7.618" cy="7.618" r="7.618" transform="translate(482.986 284.684)"/><circle class="f" cx="7.618" cy="7.618" r="7.618" transform="translate(402.996 146.035)"/><path class="d" d="M283,510.952l1.354-.7c-17.584-33.995-8.181-78.142,2.8-109.191a334.659,334.659,0,0,1,28.4-59.935l-1.288-.814a336.365,336.365,0,0,0-28.547,60.24C274.639,431.886,265.17,476.474,283,510.952Z" transform="translate(-151.126 -174.116)"/><rect class="d" width="1.523" height="54.987" transform="translate(117.341 166.737) rotate(-10.355)"/><rect class="d" width="74.925" height="1.524" transform="matrix(0.681, -0.732, 0.732, 0.681, 133.52, 267.407)"/><rect class="d" width="1.524" height="44.191" transform="matrix(0.81, -0.586, 0.586, 0.81, 91.568, 273.698)"/><circle class="f" cx="7.618" cy="7.618" r="7.618" transform="translate(106.653 136.894)"/><circle class="f" cx="7.618" cy="7.618" r="7.618" transform="translate(189.69 195.553)"/><circle class="f" cx="7.618" cy="7.618" r="7.618" transform="translate(156.17 203.171)"/><circle class="f" cx="7.618" cy="7.618" r="7.618" transform="translate(171.407 232.881)"/><circle class="f" cx="7.618" cy="7.618" r="7.618" transform="translate(76.181 251.926)"/><circle class="f" cx="7.618" cy="7.618" r="7.618" transform="translate(101.32 260.306)"/><circle class="e" cx="7.618" cy="7.618" r="7.618" transform="translate(83.799 284.684)"/><circle class="f" cx="7.618" cy="7.618" r="7.618" transform="translate(163.788 146.035)"/><rect class="d" width="742" height="1.524" transform="translate(0 336.487)"/><circle class="d" cx="9.167" cy="9.167" r="9.167" transform="translate(318.417 310.865)"/><path class="g" d="M535.881,551.063s.183,3.3-2.017,3.667l3.117,7.517,3.85,6.234h3.3l2.017-1.833-.367-2.384-1.1-4.217-1.283-1.283s.183-5.317,1.833-7.7S535.881,551.063,535.881,551.063Z" transform="translate(-213.247 -224.063)"/><path class="c" d="M535.881,551.063s.183,3.3-2.017,3.667l3.117,7.517,3.85,6.234h3.3l2.017-1.833-.367-2.384-1.1-4.217-1.283-1.283s.183-5.317,1.833-7.7S535.881,551.063,535.881,551.063Z" transform="translate(-213.247 -224.063)"/><circle class="d" cx="4.4" cy="4.4" r="4.4" transform="translate(325.752 306.832)"/><path class="d" d="M540.5,526.856a4.4,4.4,0,0,1,4.4-4.4c.058,0,.115,0,.173,0a4.4,4.4,0,1,0-1.446,8.609,4.4,4.4,0,0,1-3.128-4.213Z" transform="translate(-214.565 -217.457)"/><path class="g" d="M533.413,556.354l-1.833-.183a3.01,3.01,0,0,0-2.934.733c-1.283,1.283.183,15.768.183,15.768l4.584-3.117.733-7.334Z" transform="translate(-211.879 -225.503)"/><path class="g" d="M518.791,631.057l-2.567,14.484s-1.65,6.05-3.667,7.884-5.134,17.051-5.867,20.352-.917,5.134-1.833,6.417,0,5.867,0,5.867h2.017l2.934-.55s.55-6.967,1.1-8.251,9.534-20.535,9.534-20.535,6.05-8.984,7.151-13.934a31.7,31.7,0,0,1,4.034-9.351Z" transform="translate(-206.24 -243.369)"/><path class="g" d="M547.583,629.112l2.384,16.685s0,5.134.733,7.151,1.283,13.934,2.017,16.685,2.383,8.8,1.833,9.534a26.163,26.163,0,0,0-1.65,3.667l1.833,4.034,4.95-3.484-.733-30.069s2.017-25.485.733-26.219S551.983,624.162,547.583,629.112Z" transform="translate(-216.515 -242.158)"/><path class="d" d="M527.369,606.063,523.7,616.148s-2.75,10.634-1.283,11.184,18.151,2.934,18.518.917a20.67,20.67,0,0,0,.367-2.384s14.3.55,14.484-2.75a118.616,118.616,0,0,0-.733-13.384,3.574,3.574,0,0,0-3.3-2.75C549.737,606.981,532.319,602.4,527.369,606.063Z" transform="translate(-210.418 -237.077)"/><path class="d" d="M504.421,698.935a1.208,1.208,0,0,1,1.65-.367,8.148,8.148,0,0,0,3.3.367l-.55,4.95s2.2,8.8-1.833,8.8-6.234-2.934-5.867-4.034,1.283-9.717,1.283-9.717,1.762-4.329,1.833-4.584S504.421,698.935,504.421,698.935Z" transform="translate(-205.438 -258.443)"/><path class="d" d="M554.555,698.462s-.367,2.017,1.283,1.833,4.4-1.833,4.584-1.65a9.039,9.039,0,0,1,.917,2.934c.183,1.283.55,4.034,2.2,5.317s4.217,5.317,1.283,5.5-8.251,0-8.434-1.833-.183-3.85-.183-3.85a4.951,4.951,0,0,1-2.2-.183c-.55-.367-4.217-2.567-3.117-5.5a11.219,11.219,0,0,1,4.2-4.824Z" transform="translate(-217.253 -258.887)"/><circle class="g" cx="7.151" cy="7.151" r="7.151" transform="translate(319.701 315.449)"/><path class="g" d="M547.1,563.187s3.3,0,4.034,1.833-.733,5.684-.733,5.684l-1.672-4.087Z" transform="translate(-216.4 -227.203)"/><path class="f" d="M529.337,555.967h2.2s5.684,8.434,6.6,9.167,4.217.917,4.217.367-1.65-5.317-1.65-5.317l1.467,1.1,2.384,5.867s6.417,16.135,5.867,17.785a1.635,1.635,0,0,0,.917,2.2c.183.183,2.2,4.4,1.283,6.05s.917,3.667.917,3.667.917,4.034-2.2,4.584-4.767-2.383-8.434-.917-8.617,1.65-9.717-.55a41.146,41.146,0,0,1-2.017-5.134s-2.017,3.484-1.1,6.234-.367-.183-1.283-.183-2.567-.183-2.567-1.283-3.667-19.618-3.667-19.618l5.134-11.734s4.767-2.2,4.217-4.767S532.087,557.25,529.337,555.967Z" transform="translate(-210.553 -225.483)"/><path class="g" d="M528.357,557.239a3.207,3.207,0,0,0-3.406-.568,7.885,7.885,0,0,0-4.527,5.269c-1.65,5.317-5.134,19.435-4.4,22.918s6.784,19.068,6.784,19.068a40.916,40.916,0,0,0,.733,4.217c.183.183,2.934-6.6,2.934-6.6l-4.767-18.151,6.417-19.618S530.735,559.466,528.357,557.239Z" transform="translate(-208.974 -225.589)"/><ellipse class="d" cx="7.059" cy="4.584" rx="7.059" ry="4.584" transform="translate(320.434 311.965)"/><path class="d" d="M321.643,563.41s-12.281,6.613-12.753,12.281-7.557,19.838-7.557,19.838-27.868-8.03-28.34-8.5-2.362,8.5-2.362,8.5l9.919,1.417,18.421,6.613s4.251,6.14,11.336-2.362,25.034-26.923,25.034-26.923Z" transform="translate(-150.546 -227.256)"/><path class="d" d="M334.493,589.8s15.587,15.115,15.115,18.421-7.557,30.23-7.557,30.23l5.668,2.834,3.779-2.362,7.557-32.591s2.845-3.992-2.592-8.609-9.216-20.676-9.216-20.676Z" transform="translate(-165.758 -230.505)"/><circle class="h" cx="8.03" cy="8.03" r="8.03" transform="translate(204.869 313.246)"/><path class="h" d="M382.469,541.4s-8.03-3.779-8.974-2.834,1.889,12.281,1.889,12.281,7.557-4.251,8.5-4.251S382.469,541.4,382.469,541.4Z" transform="translate(-175.002 -221.301)"/><path class="e" d="M368.324,546.2s-2.362-9.447-3.306-9.447-9.919,1.417-15.587,8.03a69.578,69.578,0,0,1-13.7,11.808c-1.889,1.417-3.306,2.834,0,4.251a22.3,22.3,0,0,1,8.5,7.557c1.417,2.362,10.864-.472,10.864-.472s4.251-8.03,5.668-8.03S369.741,549.03,368.324,546.2Z" transform="translate(-165.581 -220.905)"/><path class="h" d="M358.466,562.79s-6.613,8.974-6.613,15.587,3.779,17.477,3.779,17.477,3.306,16.06,6.14,10.392-1.889-13.226-1.889-13.226l-1.889-17,3.779-8.974Z" transform="translate(-169.893 -227.108)"/><path class="d" d="M272.114,594.268s-5.266-3.851-5.739-2.434-7.557,17.477-5.2,18.421,9.447-8.5,9.919-8.5S270.768,593.868,272.114,594.268Z" transform="translate(-148.181 -233.952)"/><path class="d" d="M352.7,654.554s7.085,3.779,8.5,3.779,4.251,1.889.945,2.834-17.949,2.362-18.421.945,0-5.2,0-5.2S352.7,655.971,352.7,654.554Z" transform="translate(-167.908 -248.966)"/><path class="d" d="M399.263,540.32a3.978,3.978,0,0,0,.226-1.821,5.777,5.777,0,0,0-1.06-3.837c-.473-.51-1.137-.855-1.47-1.466a9.187,9.187,0,0,1-.426-1.317,3.675,3.675,0,0,0-2.611-2.124,10.859,10.859,0,0,0-3.483-.128,16.155,16.155,0,0,0-4.89.861,5.462,5.462,0,0,0-3.375,3.424,8.071,8.071,0,0,0-.2,1.88l-.069,2.63a1.7,1.7,0,0,0,1.949.21c.64-.284,1.183-.762,1.833-1.023a1.611,1.611,0,0,1,1.913.347,5.738,5.738,0,0,1,.333.723c1.3,2.581,4.78-.166,6.589-.126C396.144,538.588,398.077,542.864,399.263,540.32Z" transform="translate(-177.052 -219.189)"/><path class="d" d="M357.23,664.416c11.771,0,13.667-4.385,13.745-4.581l-.875-.356c-.019.044-2.035,4.412-14.661,3.96-12.256-.438-31.221-.06-33.755-.006-.71-1.2-3.9-6.081-8.393-5.18l.185.926c4.321-.867,7.49,4.9,7.521,4.957l.137.254.289-.006c.208,0,20.921-.466,33.981,0Q356.354,664.416,357.23,664.416Z" transform="translate(-160.708 -249.82)"/><rect class="d" width="3.779" height="3.779" rx="1.889" transform="translate(198.492 419.286) rotate(180)"/><rect class="d" width="3.779" height="3.779" rx="1.889" transform="translate(165.9 419.286) rotate(180)"/><path class="e" d="M372.106,547.909s-2.245,11.37-4.665,13.479-2.989,4.151-4.594,4.783-7.273-5.981-7.273-6.453S372.106,547.909,372.106,547.909Z" transform="translate(-170.779 -223.564)"/><rect class="d" width="118.842" height="1.524" transform="translate(130.269 421.048)"/><rect class="d" width="118.842" height="1.524" transform="translate(271.965 453.043)"/><rect class="d" width="48.756" height="1.524" transform="translate(438.801 497.99)"/><rect class="d" width="48.756" height="1.524" transform="translate(134.84 485.039)"/><rect class="d" width="209.623" height="1.524" transform="translate(405.599 377.625)"/><path class="b" d="M316.647,199.347A34.617,34.617,0,0,0,259.7,211.638l63.579-2.946a34.552,34.552,0,0,0-6.634-9.345Z" transform="translate(-147.943 -138.112)"/><path class="b" d="M496.647,132.347A34.617,34.617,0,0,0,439.7,144.638l63.579-2.946A34.552,34.552,0,0,0,496.647,132.347Z" transform="translate(-190.818 -122.153)"/><path class="b" d="M813.647,299.347A34.617,34.617,0,0,0,756.7,311.638l63.579-2.946A34.552,34.552,0,0,0,813.647,299.347Z" transform="translate(-266.325 -161.931)"/><rect class="d" width="115.033" height="1.524" transform="translate(517.267 474.374)"/><path class="e" d="M814.312,703.966a6.09,6.09,0,0,1-5.635,6.076h0c-.15.014-.3.019-.455.019a6.094,6.094,0,0,1-6.094-6.095.624.624,0,0,1,0-.094,6.088,6.088,0,0,1,5.415-5.963,6.363,6.363,0,0,1,.675-.038,6.087,6.087,0,0,1,6,5.039v0A5.983,5.983,0,0,1,814.312,703.966Z" transform="translate(-277.144 -259.284)"/><path class="b" d="M816.071,705.432a6.09,6.09,0,0,1-5.635,6.076h0a4.688,4.688,0,0,1,5.546-7.13v0A5.988,5.988,0,0,1,816.071,705.432Z" transform="translate(-278.903 -260.749)"/><path class="b" d="M807.75,699.29a4.688,4.688,0,0,1-5.621,4.594,6.088,6.088,0,0,1,5.415-5.963A4.542,4.542,0,0,1,807.75,699.29Z" transform="translate(-277.146 -259.295)"/><path class="d" d="M883.712,692.221c0,3.787-5.658,3.264-6.856,6.856-4.192,12.565-6.9-1.867-6.856-6.856a6.856,6.856,0,0,1,13.713,0Z" transform="translate(-293.312 -256.305)"/><path class="f" d="M874.042,719.331s-.082,8.633-1.206,9.2-7.509,1.768-6.384,3.736a4.522,4.522,0,0,0,5.9,1.687c1.968-1.125,6.747-7.872,6.747-7.872Z" transform="translate(-292.435 -264.395)"/><path class="f" d="M907.825,728.152s0,.083.008.23a6.243,6.243,0,0,0,8.626,5.323c.82-.322,1.531-.371,1.4.514-.281,1.968-.2,4.616,1.206,4.616s3.374-3.374,2.249-7.028a31.326,31.326,0,0,0-3.655-7.309Z" transform="translate(-302.322 -265.626)"/><path class="c" d="M874.042,719.331s-.082,8.633-1.206,9.2-7.509,1.768-6.384,3.736a4.522,4.522,0,0,0,5.9,1.687c1.968-1.125,6.747-7.872,6.747-7.872Z" transform="translate(-292.435 -264.395)"/><path class="c" d="M907.825,728.152s0,.083.008.23a6.243,6.243,0,0,0,8.626,5.323c.82-.322,1.531-.371,1.4.514-.281,1.968-.2,4.616,1.206,4.616s3.374-3.374,2.249-7.028a31.326,31.326,0,0,0-3.655-7.309Z" transform="translate(-302.322 -265.626)"/><path class="f" d="M866.184,694.387a9.494,9.494,0,0,1,2.6-3.4,8.483,8.483,0,0,1,7.759-1.652c6.466,1.687,7.31,6.466,7.31,6.466v1.929a4.621,4.621,0,0,0,2.858,4.332c1.431.559,25-.229,26.405-1.635a15.623,15.623,0,0,0,2.5-3.783v.055a14.342,14.342,0,0,1-1.943,7.336,4.706,4.706,0,0,0-.868,2.73c.281,1.968,1.125,7.309-.562,9.277s-.843,3.374,1.125,3.655,5.341-.281,5.06,3.093.281,4.779-1.125,4.779-2.024-.434-3.43-3.526c0,0-1.068-.691-5,.433-2.558.731-5.919,1.423-6.9-.563-2.175-4.393-16.159-3.526-19.344.87a14.66,14.66,0,0,1-3.071,3.3,7.726,7.726,0,0,1-1.818,1.063c-1.687.6-3.725.808-5.131-.738-2.811-3.092,4.7-3.607,4.7-3.607s1.2-2.859.638-4.827c0,0-6.747-1.406-7.028-10.121,0,0-9,0-10.4-4.5l-1.406-4.5,2.7-1.623a11.125,11.125,0,0,0,4.357-4.835Z" transform="translate(-290.719 -257.174)"/><ellipse class="d" cx="1.311" cy="1.687" rx="1.311" ry="1.687" transform="translate(567.21 442.226)"/><path class="d" d="M891.236,695.618c0,4.207-6.286,3.627-7.618,7.618-4.658,13.962-7.661-2.075-7.618-7.618a7.618,7.618,0,0,1,15.236,0Z" transform="translate(-294.741 -256.932)"/></g></svg>