<svg xmlns="http://www.w3.org/2000/svg" width="57.226" height="57.226" viewBox="0 0 57.226 57.226"><defs><style>.a{fill:#ffb100;}</style></defs><g transform="translate(0 0)"><path class="a" d="M3.353,3.353H13.412V0H0V13.412H3.353Zm0,0"/><path class="a" d="M392,0V3.353h10.059V13.412h3.353V0Zm0,0" transform="translate(-348.187)"/><path class="a" d="M402.059,402.059H392v3.353h13.412V392h-3.353Zm0,0" transform="translate(-348.187 -348.187)"/><path class="a" d="M3.353,392H0v13.412H13.412v-3.353H3.353Zm0,0" transform="translate(0 -348.187)"/><path class="a" d="M61,60V76.765H77.765V66.706h3.353V63.353H77.765V60ZM74.412,73.412H64.353V63.353H74.412Zm0,0" transform="translate(-54.182 -53.294)"/><path class="a" d="M291.118,290.118V273.353h-6.706V270h-3.353v3.353H271v3.353h3.353v3.353H271v3.353h3.353v6.706Zm-13.412-13.412h10.059v10.059H277.706Zm0,0" transform="translate(-240.711 -239.822)"/><path class="a" d="M71.059,243.353h6.706V240H61v3.353h6.706v3.353H64.353v3.353h3.353v6.706H64.353v3.353h3.353v3.353H84.471v-3.353H81.118v-3.353H77.765v3.353H71.059v-3.353h3.353v-3.353H71.059Zm0,0" transform="translate(-54.182 -213.176)"/><path class="a" d="M121,120h3.353v3.353H121Zm0,0" transform="translate(-107.476 -106.588)"/><path class="a" d="M361,120h3.353v3.353H361Zm0,0" transform="translate(-320.651 -106.588)"/><path class="a" d="M311.059,76.765h6.706V60H301V76.765h6.706v3.353h3.353Zm-6.706-3.353V63.353h10.059V73.412Zm0,0" transform="translate(-267.358 -53.294)"/><path class="a" d="M397.706,243.353V240H391v3.353Zm0,0" transform="translate(-347.298 -213.176)"/><path class="a" d="M361,360h3.353v3.353H361Zm0,0" transform="translate(-320.651 -319.763)"/><path class="a" d="M241,330h3.353v3.353H241Zm0,0" transform="translate(-214.064 -293.116)"/><path class="a" d="M181,306.706h3.353V300H181Zm0,0" transform="translate(-160.77 -266.469)"/><path class="a" d="M211,270h3.353v3.353H211Zm0,0" transform="translate(-187.417 -239.822)"/><path class="a" d="M64.353,330H61v6.706h3.353Zm0,0" transform="translate(-54.182 -293.116)"/><path class="a" d="M61,420h3.353v3.353H61Zm0,0" transform="translate(-54.182 -373.057)"/><path class="a" d="M241,60h3.353v3.353H241Zm0,0" transform="translate(-214.064 -53.294)"/><path class="a" d="M241,126.706h3.353V120H241Zm0,0" transform="translate(-214.064 -106.588)"/><path class="a" d="M244.353,213.353V210H241v6.706h13.412v-3.353Zm0,0" transform="translate(-214.064 -186.529)"/></g></svg>